<?xml version="1.0" encoding="utf-8"?>
<!-- Generator: Adobe Illustrator 24.2.3, SVG Export Plug-In . SVG Version: 6.00 Build 0)  -->
<svg version="1.1" id="layer" xmlns="http://www.w3.org/2000/svg" xmlns:xlink="http://www.w3.org/1999/xlink" x="0px" y="0px"
	 viewBox="0 0 600.9 155.9" style="enable-background:new 0 0 600.9 155.9;" xml:space="preserve">
<style type="text/css">
	.st0{fill:#F98012;}
	.st1{fill:#333333;}
</style>
<g>
	<path class="st0" d="M141.3,153.2V99.7c0-11.1-4.6-16.8-13.6-16.8c-9.1,0-13.7,5.6-13.7,16.8v53.5H87.1V99.7
		c0-11.1-4.5-16.8-13.5-16.8c-9.1,0-13.6,5.6-13.6,16.8v53.5H33.1V96.5c0-11.6,4-20.5,12-26.4c7-5.4,16.6-8,28.6-8
		c12.1,0,21.1,3.1,26.9,9.5c5-6.3,14-9.5,27.1-9.5c12,0,21.5,2.6,28.5,8c8,6,12,14.8,12,26.4v56.6H141.3z"/>
	<path class="st0" d="M471.2,152.9V0.2h26.9V153h-26.9V152.9z"/>
	<path class="st0" d="M436.9,152.9v-9c-2.4,3.2-6.5,5.9-12.2,7.8c-5.1,1.8-10,2.6-14.6,2.6c-12.8,0-23.1-4.5-31-13.4
		c-7.8-8.9-11.7-20-11.7-33.1c0-13,3.8-23.8,11.4-32.6c6.7-7.8,17.7-13.2,30.5-13.2c14.2,0,22.6,5.5,27.6,11.6V0h26.2v152.8h-26.2
		V152.9z M436.9,102c0-4.9-2.3-9.5-6.8-14c-4.5-4.5-9.3-6.7-14-6.7c-6.9,0-12.3,2.8-16.3,8.5c-3.5,5.1-5.3,11.2-5.3,18.4
		s1.8,13.3,5.3,18.2c4,5.9,9.5,8.7,16.3,8.7c4.1,0,8.7-1.9,13.6-6c4.9-4,7.3-8,7.3-12.3v-15H436.9z"/>
	<path class="st0" d="M316.7,155.3c-13.6,0-24.9-4.4-33.8-13.2c-8.9-8.7-13.3-20-13.3-33.8c0-13.8,4.4-25,13.3-33.7
		c8.9-8.7,20.1-13.2,33.8-13.2c13.6,0,24.9,4.4,33.9,13.2c9,8.7,13.5,20.1,13.5,33.7c0,13.8-4.5,25-13.5,33.8
		C341.6,150.9,330.3,155.3,316.7,155.3z M316.7,83.4c-6.5,0-11.5,2.4-15,7.5c-3.5,5-5.2,10.8-5.2,17.7c0,6.9,1.6,12.7,4.9,17.3
		c3.7,5.4,8.8,8,15.3,8s11.6-2.6,15.3-8c3.4-4.8,5.1-10.5,5.1-17.3c0-6.9-1.6-12.7-4.9-17.3C328.5,85.9,323.3,83.4,316.7,83.4z"/>
	<path class="st0" d="M219.3,155.3c-13.6,0-24.9-4.4-33.8-13.2c-8.9-8.7-13.3-20-13.3-33.8c0-13.8,4.4-25,13.3-33.7
		c8.9-8.7,20.1-13.2,33.8-13.2s24.9,4.4,33.9,13.2s13.5,20.1,13.5,33.7c0,13.8-4.5,25-13.5,33.8
		C244.2,150.9,232.9,155.3,219.3,155.3z M219.3,83.4c-6.5,0-11.5,2.4-15,7.5c-3.5,5-5.2,10.8-5.2,17.7c0,6.9,1.6,12.7,4.9,17.3
		c3.7,5.4,8.8,8,15.3,8s11.6-2.6,15.3-8c3.4-4.8,5.1-10.5,5.1-17.3c0-6.9-1.6-12.7-4.9-17.3C231.1,85.9,225.9,83.4,219.3,83.4z"/>
	<path class="st0" d="M530,116.7c0.6,6.5,8.9,20.5,22.6,20.5c13.3,0,19.6-7.8,19.9-10.9l28.3-0.2c-3.1,9.6-15.6,29.9-48.8,29.9
		c-13.7,0-26.4-4.4-35.5-13c-9-8.7-13.6-20-13.6-33.9c0-14.4,4.5-25.8,13.6-34.4c9.1-8.5,20.8-12.8,35.3-12.8
		c15.7,0,27.9,5.3,36.8,15.8c8.1,9.7,12.2,22.8,12.2,39.2H530V116.7z M574,99.9c-1.1-5.9-3.5-10.6-7.2-14.4c-4.2-4.1-9-6.1-14.4-6.1
		c-5.6,0-10.3,1.9-14,5.9c-3.8,4-6.3,8.7-7.6,14.6L574,99.9L574,99.9z"/>
	<path class="st1" d="M85.2,57.9L112,38.2l-0.3-1.2C63.5,43,41.6,47.2,0,71.5l0.4,1.1h3.3C3.4,76,2.9,84.3,3.6,96.8
		c-4.6,13.5-0.1,22.7,4.1,32.6c0.7-10.3,0.6-21.7-2.5-33C4.6,84.1,5.1,75.9,5.4,72.7L33,72.9c0,0-0.2,8.4,0.8,16.3
		c24.6,8.7,49.4,0,62.5-21.6C92.5,63.5,85.2,57.9,85.2,57.9z"/>
</g>
</svg>
